<svg id="Layer_1" data-name="Layer 1" xmlns="http://www.w3.org/2000/svg" viewBox="0 0 193.67 88.24">
    <defs>
        <style>
            .cls-1 {
                fill: currentColor;
            }
        </style>
    </defs>
    <path class="cls-1"
        d="M65.57,75a.5.5,0,0,1,0,.14.12.12,0,0,1,0,.09.16.16,0,0,1-.11,0h-.4l-.11,0-.06,0,0-.06-.45-1.28H62.23l-.43,1.26s0,0,0,.06l0,0-.11,0h-.38a.16.16,0,0,1-.11,0,.07.07,0,0,1,0-.08.44.44,0,0,1,0-.14l1.76-4.88a.16.16,0,0,1,0-.07.2.2,0,0,1,.08,0l.13,0h.41l.14,0a.15.15,0,0,1,.08,0,.22.22,0,0,1,.05.08Zm-2.26-4.3h0l-.9,2.61h1.82Z" />
    <path class="cls-1"
        d="M69.3,75.18a.14.14,0,0,1,0,.06.09.09,0,0,1-.06,0l-.1,0h-.34l-.11,0a.1.1,0,0,1,0,0,.14.14,0,0,1,0-.06v-5a.14.14,0,0,1,0-.06l.06,0,.11,0h.33l.1,0,.06,0a.14.14,0,0,1,0,.06Z" />
    <path class="cls-1"
        d="M79.7,73.82a1.51,1.51,0,0,1-.13.65,1.32,1.32,0,0,1-.38.49,1.42,1.42,0,0,1-.57.3,2.24,2.24,0,0,1-.7.1,2.49,2.49,0,0,1-.49,0,3.26,3.26,0,0,1-.4-.11,2.23,2.23,0,0,1-.3-.13.92.92,0,0,1-.16-.12.24.24,0,0,1-.07-.12.59.59,0,0,1,0-.2v-.15l0-.1a.1.1,0,0,1,0,0h.06a.33.33,0,0,1,.16.07l.26.15.39.15a1.74,1.74,0,0,0,.53.07,1.42,1.42,0,0,0,.42-.06,1.09,1.09,0,0,0,.32-.17.83.83,0,0,0,.21-.28.87.87,0,0,0,.07-.37.67.67,0,0,0-.1-.38.89.89,0,0,0-.27-.28,2.57,2.57,0,0,0-.37-.21l-.44-.21a3.55,3.55,0,0,1-.43-.23,1.82,1.82,0,0,1-.38-.29,1.56,1.56,0,0,1-.27-.4,1.32,1.32,0,0,1-.1-.55,1.41,1.41,0,0,1,.12-.59,1.27,1.27,0,0,1,.33-.43,1.58,1.58,0,0,1,.5-.26A2.2,2.2,0,0,1,78.2,70a2.07,2.07,0,0,1,.35,0,1.59,1.59,0,0,1,.33.08,1.49,1.49,0,0,1,.28.11,1.19,1.19,0,0,1,.16.1l.05.06a.14.14,0,0,1,0,.06.19.19,0,0,1,0,.08.49.49,0,0,1,0,.13.53.53,0,0,1,0,.13.2.2,0,0,1,0,.09.16.16,0,0,1,0,.06l0,0a.3.3,0,0,1-.14-.06l-.24-.13-.32-.13a1.45,1.45,0,0,0-.43,0,1.13,1.13,0,0,0-.38,0,1,1,0,0,0-.26.16.53.53,0,0,0-.16.23.69.69,0,0,0-.05.28.65.65,0,0,0,.1.38.8.8,0,0,0,.27.28,2,2,0,0,0,.38.22l.44.21a4.64,4.64,0,0,1,.44.23,1.82,1.82,0,0,1,.38.29,1.27,1.27,0,0,1,.37.94Z" />
    <path class="cls-1"
        d="M87.25,72.6a4.06,4.06,0,0,1-.15,1.15,2.4,2.4,0,0,1-.45.87,1.87,1.87,0,0,1-.74.55,2.62,2.62,0,0,1-1,.19,2.68,2.68,0,0,1-1-.17,1.93,1.93,0,0,1-.71-.51,2.21,2.21,0,0,1-.42-.84,4.36,4.36,0,0,1-.14-1.15,3.89,3.89,0,0,1,.15-1.12,2.27,2.27,0,0,1,.45-.86,2,2,0,0,1,.75-.55A2.62,2.62,0,0,1,85,70a2.57,2.57,0,0,1,1,.17,1.89,1.89,0,0,1,.72.51,2.1,2.1,0,0,1,.42.83A3.81,3.81,0,0,1,87.25,72.6Zm-.74.05a4.43,4.43,0,0,0-.07-.83,2,2,0,0,0-.27-.66,1.16,1.16,0,0,0-.49-.44,1.83,1.83,0,0,0-1.52,0,1.48,1.48,0,0,0-.5.46,1.88,1.88,0,0,0-.28.66,4.07,4.07,0,0,0-.08.79,4.57,4.57,0,0,0,.08.86,1.74,1.74,0,0,0,.26.67,1.17,1.17,0,0,0,.48.43,1.88,1.88,0,0,0,1.54,0,1.31,1.31,0,0,0,.5-.46,1.82,1.82,0,0,0,.27-.67A3.48,3.48,0,0,0,86.51,72.65Z" />
    <path class="cls-1"
        d="M93.23,75v.14l0,.09a.1.1,0,0,1,0,.06.08.08,0,0,1-.06,0H90.77a.23.23,0,0,1-.17-.07.24.24,0,0,1-.09-.22V70.15a.14.14,0,0,1,0-.06l.06,0,.11,0H91l.11,0,0,0a.14.14,0,0,1,0,.06v4.53h1.88l.06,0a.12.12,0,0,1,0,0l0,.1Z" />
    <path class="cls-1"
        d="M99.93,73.35a2.48,2.48,0,0,1-.14.85,1.88,1.88,0,0,1-.4.64,1.76,1.76,0,0,1-.63.39,2.75,2.75,0,0,1-1.64,0,1.64,1.64,0,0,1-.61-.37,1.66,1.66,0,0,1-.4-.62A2.45,2.45,0,0,1,96,73.4V70.15a.13.13,0,0,1,0-.06l.06,0,.1,0h.34l.11,0,.05,0a.14.14,0,0,1,0,.06v3.17a2,2,0,0,0,.09.63,1.09,1.09,0,0,0,.26.46,1,1,0,0,0,.4.27,1.51,1.51,0,0,0,.53.09,1.55,1.55,0,0,0,.55-.09,1.09,1.09,0,0,0,.4-.27,1.18,1.18,0,0,0,.25-.44,1.94,1.94,0,0,0,.08-.62v-3.2a.14.14,0,0,1,0-.06l.06,0,.11,0h.33l.1,0,.06,0a.14.14,0,0,1,0,.06Z" />
    <path class="cls-1"
        d="M106.76,70.34s0,.1,0,.14l0,.09,0,.05h-1.54v4.55a.13.13,0,0,1,0,.06.09.09,0,0,1-.06,0l-.11,0h-.33l-.11,0a.09.09,0,0,1-.06,0,.13.13,0,0,1,0-.06V70.63h-1.54a.1.1,0,0,1,0-.05l0-.09s0-.09,0-.14,0-.09,0-.13l0-.1a.1.1,0,0,1,0,0l.06,0h3.65l.06,0,0,0,0,.1S106.76,70.29,106.76,70.34Z" />
    <path class="cls-1"
        d="M110.37,75.18a.14.14,0,0,1,0,.06.1.1,0,0,1,0,0l-.11,0h-.33l-.11,0a.09.09,0,0,1-.06,0,.14.14,0,0,1,0-.06v-5a.14.14,0,0,1,0-.06l.06,0,.11,0h.33l.11,0,0,0a.14.14,0,0,1,0,.06Z" />
    <path class="cls-1"
        d="M118.32,72.6a4.06,4.06,0,0,1-.15,1.15,2.4,2.4,0,0,1-.45.87,2,2,0,0,1-.75.55,2.62,2.62,0,0,1-1,.19,2.66,2.66,0,0,1-1-.17,1.89,1.89,0,0,1-.72-.51,2.55,2.55,0,0,1-.42-.84,4.39,4.39,0,0,1-.13-1.15,3.89,3.89,0,0,1,.15-1.12,2.27,2.27,0,0,1,.45-.86,2,2,0,0,1,.75-.55,3,3,0,0,1,2.06,0,1.93,1.93,0,0,1,.71.51,2.25,2.25,0,0,1,.43.83A4.18,4.18,0,0,1,118.32,72.6Zm-.74.05a4.41,4.41,0,0,0-.08-.83,1.94,1.94,0,0,0-.26-.66,1.29,1.29,0,0,0-.49-.44,1.86,1.86,0,0,0-1.53,0,1.57,1.57,0,0,0-.5.46,1.7,1.7,0,0,0-.27.66,3.42,3.42,0,0,0-.09.79,4.57,4.57,0,0,0,.08.86,1.91,1.91,0,0,0,.26.67,1.14,1.14,0,0,0,.49.43,1.6,1.6,0,0,0,.77.16,1.58,1.58,0,0,0,.76-.17,1.41,1.41,0,0,0,.51-.46,2.24,2.24,0,0,0,.27-.67A4.12,4.12,0,0,0,117.58,72.65Z" />
    <path class="cls-1"
        d="M125.54,75a.32.32,0,0,1,0,.14.16.16,0,0,1-.07.09.19.19,0,0,1-.1,0l-.1,0H125l-.2,0a.55.55,0,0,1-.15-.08,1.17,1.17,0,0,1-.15-.16,2,2,0,0,1-.15-.26l-1.6-3c-.09-.15-.17-.31-.26-.48s-.16-.33-.23-.49h0c0,.19,0,.39,0,.59v3.77a.13.13,0,0,1,0,.06.15.15,0,0,1-.06,0l-.11,0h-.34l-.1,0s0,0-.06,0a.13.13,0,0,1,0-.06V70.34a.27.27,0,0,1,.09-.23.37.37,0,0,1,.2-.07h.34l.21,0a.61.61,0,0,1,.14.07.4.4,0,0,1,.13.13,1.6,1.6,0,0,1,.13.21l1.23,2.3.21.41c.08.14.14.27.21.4l.19.38c.07.13.13.25.19.38h0c0-.21,0-.44,0-.67s0-.45,0-.66V70.16a.08.08,0,0,1,0,0s0,0,.06,0l.11,0h.33l.11,0s0,0,0,0,0,0,0,0Z" />
    <path class="cls-1"
        d="M131.91,73.82a1.51,1.51,0,0,1-.13.65,1.32,1.32,0,0,1-.38.49,1.42,1.42,0,0,1-.57.3,2.28,2.28,0,0,1-.7.1,2.49,2.49,0,0,1-.49,0,3.26,3.26,0,0,1-.4-.11,2.23,2.23,0,0,1-.3-.13l-.16-.12a.24.24,0,0,1-.07-.12.56.56,0,0,1,0-.2c0-.06,0-.11,0-.15l0-.1a.1.1,0,0,1,0,0h.05a.27.27,0,0,1,.16.07l.27.15.39.15a1.7,1.7,0,0,0,.53.07,1.42,1.42,0,0,0,.42-.06,1.09,1.09,0,0,0,.32-.17.83.83,0,0,0,.21-.28.87.87,0,0,0,.07-.37.67.67,0,0,0-.1-.38,1.19,1.19,0,0,0-.27-.28,2.24,2.24,0,0,0-.38-.21l-.43-.21a4.64,4.64,0,0,1-.44-.23,1.76,1.76,0,0,1-.37-.29,1.56,1.56,0,0,1-.27-.4,1.31,1.31,0,0,1-.11-.55,1.41,1.41,0,0,1,.12-.59,1.18,1.18,0,0,1,.34-.43,1.58,1.58,0,0,1,.5-.26,2.2,2.2,0,0,1,.64-.09l.35,0a1.59,1.59,0,0,1,.33.08l.28.11.16.1.05.06s0,0,0,.06a.19.19,0,0,1,0,.08s0,.08,0,.13,0,.09,0,.13a.2.2,0,0,1,0,.09.16.16,0,0,1,0,.06l-.05,0a.3.3,0,0,1-.14-.06l-.24-.13-.32-.13a1.45,1.45,0,0,0-.43,0,1.13,1.13,0,0,0-.38,0,1,1,0,0,0-.27.16.51.51,0,0,0-.15.23.71.71,0,0,0-.06.28.66.66,0,0,0,.11.38.86.86,0,0,0,.26.28,2.08,2.08,0,0,0,.39.22l.44.21a4.5,4.5,0,0,1,.43.23,1.88,1.88,0,0,1,.39.29,1.27,1.27,0,0,1,.37.94Z" />
    <path class="cls-1" d="M12.66,63.89l6.8-11.5h2.43l6.55,11.5h-2.6l-1.26-2h-8l-1.38,2Zm4.86-4h6.09l-3-5Z" />
    <path class="cls-1"
        d="M29.92,63.87V52.39h8.16c1.9,0,3,.9,3,3v2.08c0,2.2-.92,3-3.07,3H32v3.51ZM32,58.31h6.08a.85.85,0,0,0,.88-.88V55.35a.85.85,0,0,0-.75-.88H32Z" />
    <path class="cls-1" d="M55.87,52.39v2.08H45.55v2.41h9.59V59H45.55v2.85H56.31v2.08H43.47V52.39Z" />
    <path class="cls-1" d="M92.56,52.39v2.08H82.24v2.41h9.59V59H82.24v2.85H93v2.08H80.16V52.39Z" />
    <path class="cls-1"
        d="M97.5,63.89h-3l5.93-5.64-5.93-5.86h3l4.4,4.46,4.42-4.46h3l-5.94,5.8,5.94,5.7h-3.11l-4.29-4.16Z" />
    <path class="cls-1"
        d="M110.75,63.87V52.39h8.17c1.89,0,3,.9,3,3v2.08c0,2.2-.91,3-3.07,3h-6v3.51Zm2.08-5.56h6.09a.86.86,0,0,0,.88-.88V55.35a.85.85,0,0,0-.75-.88h-6.22Z" />
    <path class="cls-1" d="M136.7,52.39v2.08H126.39v2.41H136V59h-9.58v2.85h10.76v2.08H124.31V52.39Z" />
    <path class="cls-1"
        d="M141.66,60v3.92l-2.08,0V52.39h8.2c1.9,0,3,.9,3,3V57a3.28,3.28,0,0,1-.55,2.12c.34.19.74.89.74,2.32,0,.83,0,0,0,1.78v.66h-2.27V61.45c0-.63-.43-1.48-1-1.48Zm0-2.08h6.12a.85.85,0,0,0,.88-.88V55.35a.85.85,0,0,0-.75-.88h-6.25Z" />
    <path class="cls-1" d="M165.76,52.39v1.87h-5.19v9.63h-2.08V54.26h-5V52.39Z" />
    <path class="cls-1"
        d="M178.26,55.92v-.84c0-.36-.36-.62-1-.62H171c-.34,0-.75.27-.75.62v1.27c0,.31,1.82.67,3.85.82,4.51.35,6.22,1,6.22,2.9v1.17c0,2-1,2.7-3.13,2.7h-5.93c-2.07,0-3.09-.69-3.09-2.69v-.77h2v.77c0,.39.23.62.79.62h6.19c.76,0,1-.28,1-.62V60.06c0-.29-1.55-.63-4.14-.82-4-.29-5.93-1-5.93-2.9V55.07c0-1.78,1-2.7,2.83-2.7h6.19c2.26,0,3.13.87,3.13,2.71v.84Z" />
    <polygon class="cls-1"
        points="72.33 63.88 69.24 63.88 65.03 59.63 60.82 63.88 57.74 63.88 63.52 58.12 57.87 52.39 60.82 52.39 65.03 56.6 69.24 52.39 72.19 52.39 66.54 58.1 72.33 63.88" />
    <path class="cls-1"
        d="M82,31.05l7.24-11.77-2.71-5.81L70.63,40.39h5.84l3.23-4.77H92.27V31.05Zm16.53,4.57h-6.3v4.77h9.23ZM98.25,24l2.8,4.88h18.54V24Zm-6-10.52v0l4.87,8.54V18.34h24.15V13.47Zm12.57,22,2.78,4.88h14.75V35.51ZM89.28,19.28l-2.71-5.81" />
</svg>